<svg xmlns="http://www.w3.org/2000/svg" xmlns:xlink="http://www.w3.org/1999/xlink" version="1.1" width="1000" height="1000" viewBox="0 0 1000 1000" xml:space="preserve">
<desc>Created with Fabric.js 3.5.0</desc>
<defs>
</defs>
<rect x="0" y="0" width="100%" height="100%" fill="#ffffff"/>
<g transform="matrix(1.328 0 0 1.328 499.988 499.988)" id="820980">
<g style="" vector-effect="non-scaling-stroke">
		<g transform="matrix(1.3333 0 0 -1.3333 -0.0101 -0.01)" id="path12">
<path style="stroke: none; stroke-width: 1; stroke-dasharray: none; stroke-linecap: butt; stroke-dashoffset: 0; stroke-linejoin: miter; stroke-miterlimit: 4; is-custom-font: none; font-file-url: none; fill: rgb(20,33,61); fill-rule: nonzero; opacity: 1;" transform=" translate(-300, -300)" d="M 0 0 H 600 V 600 H 0 Z" stroke-linecap="round"/>
</g>
		<g transform="matrix(1.3333 0 0 -1.3333 -0.0095 -0.0094)" id="path38">
<linearGradient id="SVGID_7" gradientUnits="userSpaceOnUse" gradientTransform="matrix(322.4448 -678.4376 -678.4376 -322.4448 138.7776 639.2188)" x1="0" y1="0" x2="1" y2="0">
<stop offset="0%" style="stop-color:rgb(221,174,89);stop-opacity: 1"/>
<stop offset="23.711299999999998%" style="stop-color:rgb(255,214,89);stop-opacity: 1"/>
<stop offset="50.5155%" style="stop-color:rgb(221,174,89);stop-opacity: 1"/>
<stop offset="76.80409999999999%" style="stop-color:rgb(255,214,89);stop-opacity: 1"/>
<stop offset="100%" style="stop-color:rgb(221,174,89);stop-opacity: 1"/>
</linearGradient>
<path style="stroke: none; stroke-width: 1; stroke-dasharray: none; stroke-linecap: butt; stroke-dashoffset: 0; stroke-linejoin: miter; stroke-miterlimit: 4; is-custom-font: none; font-file-url: none; fill: url(#SVGID_7); fill-rule: nonzero; opacity: 1;" transform=" translate(-300, -300)" d="m 18.5 582 c -0.277 0 -0.5 -0.224 -0.5 -0.5 v 0 v -563 C 18 18.223 18.223 18 18.5 18 v 0 h 563 c 0.276 0 0.5 0.223 0.5 0.5 v 0 v 563 c 0 0.276 -0.224 0.5 -0.5 0.5 v 0 z M 19 581 H 581 V 19 H 19 Z" stroke-linecap="round"/>
</g>
		<g transform="matrix(1.3333 0 0 -1.3333 -0.007 -0.007)" id="path64">
<linearGradient id="SVGID_8" gradientUnits="userSpaceOnUse" gradientTransform="matrix(360.0886 -486.6951 -486.6951 -360.0886 123.005 539.2262)" x1="0" y1="0" x2="1" y2="0">
<stop offset="0%" style="stop-color:rgb(221,174,89);stop-opacity: 1"/>
<stop offset="23.711299999999998%" style="stop-color:rgb(255,214,89);stop-opacity: 1"/>
<stop offset="50.5155%" style="stop-color:rgb(221,174,89);stop-opacity: 1"/>
<stop offset="76.80409999999999%" style="stop-color:rgb(255,214,89);stop-opacity: 1"/>
<stop offset="100%" style="stop-color:rgb(221,174,89);stop-opacity: 1"/>
</linearGradient>
<path style="stroke: none; stroke-width: 1; stroke-dasharray: none; stroke-linecap: butt; stroke-dashoffset: 0; stroke-linejoin: miter; stroke-miterlimit: 4; is-custom-font: none; font-file-url: none; fill: url(#SVGID_8); fill-rule: nonzero; opacity: 1;" transform=" translate(-300, -300)" d="m 299.501 508.978 c -10.261 -12.528 -10.385 -29.97 -0.588 -42.726 v 0 c -5.751 -1.371 -11.082 -4.337 -15.408 -8.417 v 0 c 7.999 12.469 7.285 28.518 -2.327 40.254 v 0 c -0.142 0.173 -0.318 0.269 -0.5 0.304 v 0 c -0.18 -0.035 -0.356 -0.131 -0.499 -0.304 v 0 c -9.592 -11.713 -10.32 -27.719 -2.373 -40.178 v 0 c -6.272 5.888 -14.661 9.453 -23.331 9.2 v 0 c -1.25 0.927 -2.564 1.783 -3.933 2.56 v 0 c 6.208 0.527 13.729 2.902 16.696 8.241 v 0 c 2.812 5.059 1.606 12.323 -3.216 15.764 v 0 c -4.578 3.268 -11.428 1.607 -13.665 -3.682 v 0 c -1.879 -4.441 1.149 -9.928 6.119 -8.852 v 0 c 0.683 -0.61 1.669 -0.815 2.618 -0.434 v 0 c 1.348 0.542 2.492 2.178 1.793 3.622 v 0 c -0.711 1.469 -2.672 1.805 -3.991 0.969 v 0 c -0.904 -0.573 -1.276 -1.558 -1.121 -2.506 v 0 c -0.016 -0.032 -0.019 -0.07 -0.03 -0.105 v 0 c -3.953 -0.467 -5.315 4.478 -3.388 7.602 v 0 c 1.299 2.105 3.472 3.235 5.872 3.378 v 0 c 5.426 0.324 8.735 -4.702 8.823 -9.606 v 0 c 0.169 -9.546 -11.638 -12.964 -19.434 -12.869 v 0 c -0.973 0.012 -1.113 -1.362 -0.306 -1.594 v 0 c 0.067 -0.067 0.139 -0.132 0.237 -0.179 v 0 c 1.528 -0.736 2.997 -1.582 4.403 -2.507 v 0 c -9.416 -1.165 -19.044 -8.658 -17 -19.158 v 0 c 1.702 -8.737 13.653 -15.848 21.301 -9.508 v 0 c 2.814 2.333 4.422 6.267 2.936 9.78 v 0 c -1.523 3.597 -5.524 5.547 -9.223 4.375 v 0 c -1.001 -0.317 -0.657 -1.926 0.354 -1.605 v 0 c 6.009 1.903 9.792 -5.187 6.261 -9.863 v 0 c -3.149 -4.171 -8.683 -4.113 -12.907 -1.846 v 0 c -7.912 4.245 -9.523 13.851 -3.55 20.501 v 0 c 3.706 4.125 8.48 5.948 13.509 6.145 v 0 c 7.117 -5.308 11.844 -13.129 10.199 -22.634 v 0 c -1.065 -6.155 -3.946 -12.305 -10.042 -14.791 v 0 c -4.808 -1.961 -10.244 -1.646 -15.276 -0.957 v 0 c -0.133 0.018 -0.25 0.007 -0.352 -0.026 v 0 c -3.15 0.414 -6.042 1.392 -8.609 2.809 v 0 c 2.165 1.294 4.483 2.236 7.261 2.225 v 0 c 0.77 -0.004 1.234 1.072 0.494 1.507 v 0 c -9.686 5.704 -11.353 17.253 -7.735 27.179 v 0 c 0.187 0.513 -0.22 1.042 -0.737 1.08 v 0 c -3.124 0.233 -6.098 0.843 -9.056 1.83 v 0 c -0.182 0.125 -0.399 0.182 -0.603 0.141 v 0 c -0.526 0.01 -0.846 -0.508 -0.776 -0.977 v 0 c -6.156 -12.114 -1.996 -25.928 8.07 -32.986 v 0 c -0.017 -0.012 -0.034 -0.021 -0.051 -0.034 v 0 c -4.772 -3.363 -9.311 -6.442 -15.37 -6.686 v 0 c -4.729 -0.191 -9.965 1.651 -11.728 5.607 v 0 c 0.352 0.303 0.608 0.716 0.68 1.221 v 0 c 0.138 1.001 -0.456 1.766 -1.291 2.041 v 0 c 0.027 0.779 0.145 1.602 0.405 2.487 v 0 c 1.101 3.75 4.919 6.762 8.963 5.652 v 0 c 3.99 -1.093 5.226 -5.733 2.696 -8.665 v 0 c -0.541 0.502 -1.295 0.758 -2.078 0.673 v 0 c -0.143 -0.015 -0.255 -0.061 -0.347 -0.123 v 0 c -0.01 -0.002 -0.018 -0.001 -0.027 0 v 0 c -0.009 0.001 -0.018 0.002 -0.029 0 v 0 c -1.397 -0.277 -2.129 -1.681 -1.615 -3.009 v 0 c 0.456 -1.176 1.732 -1.878 2.967 -1.571 v 0 c 1.118 0.278 1.887 1.304 1.869 2.425 v 0 c 3.954 3.78 2.449 10.253 -2.916 11.831 v 0 c -5.978 1.758 -11.148 -3.597 -11.497 -9.281 v 0 c -0.005 -0.078 0.002 -0.15 0 -0.228 v 0 c -0.348 -0.099 -0.681 -0.288 -0.951 -0.613 v 0 c -0.152 -0.183 -0.25 -0.388 -0.325 -0.597 v 0 c -8.628 -0.02 -17.255 -0.04 -25.884 -0.059 v 0 c -0.349 -0.001 -0.593 -0.182 -0.724 -0.424 v 0 c -0.241 -0.13 -0.422 -0.374 -0.423 -0.724 v 0 c -0.02 -8.627 -0.04 -17.256 -0.059 -25.883 v 0 c -0.209 -0.075 -0.414 -0.174 -0.597 -0.326 v 0 c -0.326 -0.269 -0.514 -0.602 -0.613 -0.95 v 0 c -0.037 -0.001 -0.071 0 -0.106 0 v 0 c -0.04 0.001 -0.08 0.002 -0.122 0 v 0 c -5.684 -0.35 -11.04 -5.519 -9.281 -11.497 v 0 c 1.578 -5.365 8.051 -6.871 11.83 -2.916 v 0 c 1.121 -0.019 2.148 0.751 2.426 1.869 v 0 c 0.307 1.235 -0.395 2.511 -1.572 2.968 v 0 c -1.326 0.513 -2.73 -0.219 -3.008 -1.617 v 0 c -0.003 -0.02 0.003 -0.035 0 -0.055 v 0 c -0.062 -0.092 -0.108 -0.204 -0.123 -0.346 v 0 c -0.085 -0.784 0.171 -1.538 0.672 -2.08 v 0 c -2.932 -2.529 -7.57 -1.293 -8.665 2.696 v 0 c -1.109 4.045 1.904 7.863 5.653 8.964 v 0 c 0.885 0.26 1.707 0.378 2.488 0.405 v 0 c 0.274 -0.836 1.039 -1.429 2.04 -1.29 v 0 c 0.505 0.07 0.918 0.327 1.221 0.679 v 0 c 3.957 -1.763 5.798 -6.999 5.607 -11.729 v 0 c -0.245 -6.058 -3.323 -10.597 -6.687 -15.369 v 0 c -0.011 -0.017 -0.021 -0.034 -0.033 -0.051 v 0 c -7.058 10.066 -20.872 14.226 -32.986 8.07 v 0 c -0.469 0.07 -0.988 -0.25 -0.976 -0.777 v 0 c -0.042 -0.204 0.015 -0.42 0.14 -0.602 v 0 c 0.987 -2.958 1.597 -5.932 1.83 -9.056 v 0 c 0.038 -0.517 0.568 -0.924 1.081 -0.737 v 0 c 9.926 3.618 21.474 1.951 27.178 -7.736 v 0 c 0.434 -0.74 1.511 -0.275 1.507 0.495 v 0 c -0.011 2.778 0.931 5.095 2.224 7.261 v 0 c 1.419 -2.567 2.395 -5.458 2.81 -8.61 v 0 c -0.032 -0.101 -0.044 -0.218 -0.026 -0.351 v 0 c 0.689 -5.032 1.004 -10.468 -0.957 -15.276 v 0 c -2.487 -6.095 -8.636 -8.976 -14.79 -10.042 v 0 c -9.505 -1.645 -17.326 3.082 -22.635 10.2 v 0 c 0.197 5.027 2.02 9.803 6.146 13.509 v 0 c 6.649 5.972 16.255 4.361 20.5 -3.551 v 0 c 2.266 -4.224 2.325 -9.758 -1.846 -12.908 v 0 c -4.675 -3.529 -11.766 0.253 -9.862 6.263 v 0 c 0.319 1.009 -1.29 1.354 -1.607 0.353 v 0 c -1.171 -3.699 0.779 -7.701 4.376 -9.223 v 0 c 3.514 -1.487 7.448 0.123 9.78 2.936 v 0 c 6.34 7.648 -0.771 19.599 -9.508 21.3 v 0 c -10.5 2.044 -17.993 -7.583 -19.158 -16.999 v 0 c -0.926 1.405 -1.771 2.875 -2.507 4.403 v 0 c -0.047 0.097 -0.112 0.17 -0.179 0.237 v 0 c -0.232 0.807 -1.607 0.666 -1.594 -0.306 v 0 c 0.095 -7.795 -3.323 -19.603 -12.87 -19.433 v 0 c -4.904 0.086 -9.929 3.396 -9.606 8.822 v 0 c 0.144 2.4 1.274 4.573 3.379 5.872 v 0 c 3.123 1.928 8.069 0.564 7.601 -3.389 v 0 c -0.034 -0.01 -0.072 -0.014 -0.104 -0.029 v 0 c -0.948 0.155 -1.933 -0.217 -2.506 -1.122 v 0 c -0.836 -1.318 -0.5 -3.279 0.97 -3.99 v 0 c 1.443 -0.7 3.08 0.444 3.62 1.793 v 0 c 0.382 0.949 0.177 1.935 -0.433 2.619 v 0 c 1.076 4.968 -4.41 7.997 -8.853 6.119 v 0 c -5.287 -2.238 -6.949 -9.088 -3.682 -13.667 v 0 c 3.442 -4.821 10.706 -6.027 15.766 -3.215 v 0 c 5.338 2.968 7.713 10.488 8.24 16.696 v 0 c 0.778 -1.369 1.633 -2.683 2.56 -3.934 v 0 c -0.253 -8.668 3.312 -17.058 9.2 -23.329 v 0 c -12.458 7.947 -28.466 7.218 -40.178 -2.375 v 0 c -0.174 -0.142 -0.269 -0.317 -0.304 -0.499 v 0 c 0.035 -0.181 0.13 -0.357 0.304 -0.499 v 0 c 11.737 -9.612 27.785 -10.326 40.255 -2.327 v 0 c -4.082 -4.326 -7.046 -9.657 -8.418 -15.407 v 0 c -12.756 9.795 -30.198 9.672 -42.726 -0.589 v 0 c -0.174 -0.142 -0.27 -0.318 -0.304 -0.499 v 0 c 0.034 -0.181 0.13 -0.357 0.304 -0.499 v 0 c 12.528 -10.261 29.97 -10.385 42.726 -0.589 v 0 c 1.372 -5.75 4.336 -11.081 8.418 -15.407 v 0 c -12.47 7.999 -28.518 7.285 -40.255 -2.327 v 0 c -0.174 -0.142 -0.269 -0.318 -0.304 -0.5 v 0 c 0.035 -0.18 0.13 -0.356 0.304 -0.499 v 0 c 11.712 -9.592 27.72 -10.32 40.178 -2.373 v 0 c -5.888 -6.272 -9.453 -14.661 -9.2 -23.331 v 0 c -0.927 -1.25 -1.782 -2.565 -2.56 -3.933 v 0 c -0.527 6.207 -2.902 13.729 -8.24 16.696 v 0 c -5.06 2.812 -12.324 1.606 -15.766 -3.216 v 0 c -3.267 -4.578 -1.605 -11.428 3.682 -13.665 v 0 c 4.443 -1.879 9.929 1.149 8.853 6.119 v 0 c 0.61 0.683 0.815 1.669 0.433 2.618 v 0 c -0.54 1.348 -2.177 2.492 -3.62 1.793 v 0 c -1.47 -0.711 -1.806 -2.672 -0.97 -3.991 v 0 c 0.573 -0.904 1.558 -1.276 2.506 -1.121 v 0 c 0.032 -0.016 0.07 -0.019 0.104 -0.03 v 0 c 0.468 -3.952 -4.478 -5.315 -7.601 -3.388 v 0 c -2.105 1.299 -3.235 3.472 -3.379 5.872 v 0 c -0.323 5.426 4.702 8.735 9.606 8.823 v 0 c 9.547 0.169 12.965 -11.638 12.87 -19.434 v 0 c -0.013 -0.973 1.362 -1.113 1.594 -0.306 v 0 c 0.067 0.067 0.132 0.14 0.179 0.237 v 0 c 0.736 1.528 1.581 2.997 2.507 4.403 v 0 c 1.165 -9.416 8.658 -19.044 19.158 -17 v 0 c 8.737 1.702 15.848 13.653 9.508 21.301 v 0 c -2.332 2.814 -6.266 4.422 -9.78 2.936 v 0 c -3.597 -1.523 -5.547 -5.524 -4.376 -9.223 v 0 c 0.317 -1.001 1.926 -0.657 1.607 0.354 v 0 c -1.904 6.009 5.187 9.792 9.862 6.261 v 0 c 4.171 -3.149 4.112 -8.683 1.846 -12.907 v 0 c -4.245 -7.912 -13.851 -9.523 -20.5 -3.55 v 0 c -4.126 3.706 -5.949 8.48 -6.146 13.509 v 0 c 5.309 7.117 13.13 11.844 22.635 10.199 v 0 c 6.154 -1.065 12.303 -3.946 14.79 -10.042 v 0 c 1.961 -4.808 1.646 -10.244 0.957 -15.276 v 0 c -0.018 -0.133 -0.006 -0.25 0.026 -0.352 v 0 c -0.415 -3.15 -1.391 -6.042 -2.81 -8.609 v 0 c -1.293 2.165 -2.235 4.483 -2.224 7.261 v 0 c 0.004 0.77 -1.073 1.234 -1.507 0.494 v 0 c -5.704 -9.686 -17.252 -11.353 -27.178 -7.735 v 0 c -0.513 0.187 -1.043 -0.22 -1.081 -0.737 v 0 c -0.233 -3.124 -0.843 -6.098 -1.83 -9.056 v 0 c -0.125 -0.182 -0.182 -0.399 -0.14 -0.602 v 0 c -0.012 -0.527 0.507 -0.847 0.976 -0.777 v 0 c 12.114 -6.156 25.928 -1.996 32.986 8.07 v 0 c 0.012 -0.017 0.022 -0.034 0.033 -0.051 v 0 c 3.364 -4.772 6.442 -9.311 6.687 -15.37 v 0 c 0.191 -4.729 -1.65 -9.965 -5.607 -11.728 v 0 c -0.303 0.352 -0.716 0.608 -1.221 0.68 v 0 c -1.001 0.138 -1.766 -0.456 -2.041 -1.291 v 0 c -0.78 0.027 -1.602 0.145 -2.487 0.405 v 0 c -3.749 1.101 -6.762 4.919 -5.653 8.963 v 0 c 1.095 3.99 5.733 5.226 8.665 2.696 v 0 c -0.501 -0.541 -0.757 -1.295 -0.672 -2.078 v 0 c 0.015 -0.143 0.061 -0.255 0.123 -0.347 v 0 c 0.003 -0.02 -0.003 -0.035 0 -0.055 v 0 c 0.278 -1.398 1.682 -2.13 3.008 -1.616 v 0 c 1.177 0.456 1.879 1.732 1.572 2.967 v 0 c -0.278 1.118 -1.305 1.888 -2.426 1.869 v 0 c -3.779 3.954 -10.252 2.449 -11.83 -2.916 v 0 c -1.759 -5.978 3.597 -11.148 9.281 -11.497 v 0 c 0.043 -0.003 0.083 -0.002 0.123 -0.001 v 0 c 0.034 0.001 0.069 0.002 0.105 0.001 v 0 c 0.099 -0.348 0.288 -0.681 0.613 -0.951 v 0 c 0.183 -0.152 0.388 -0.25 0.597 -0.325 v 0 c 0.019 -8.627 0.039 -17.255 0.059 -25.883 v 0 c 0.001 -0.35 0.182 -0.594 0.423 -0.725 v 0 c 0.131 -0.241 0.375 -0.422 0.724 -0.423 v 0 c 8.629 -0.02 17.256 -0.04 25.884 -0.059 v 0 c 0.075 -0.209 0.173 -0.414 0.325 -0.597 v 0 c 0.27 -0.325 0.603 -0.514 0.951 -0.613 v 0 c 0.002 -0.078 -0.005 -0.149 0 -0.228 v 0 c 0.349 -5.684 5.519 -11.04 11.497 -9.281 v 0 c 5.365 1.578 6.87 8.051 2.916 11.83 v 0 c 0.019 1.121 -0.751 2.148 -1.869 2.426 v 0 c -1.235 0.307 -2.511 -0.395 -2.967 -1.572 v 0 c -0.514 -1.326 0.218 -2.73 1.615 -3.008 v 0 c 0.011 -0.001 0.02 -0.001 0.029 -0.001 v 0 c 0.009 0.001 0.017 0.002 0.027 0.001 v 0 c 0.092 -0.062 0.204 -0.108 0.347 -0.123 v 0 c 0.783 -0.085 1.537 0.171 2.078 0.672 v 0 c 2.53 -2.932 1.294 -7.57 -2.696 -8.665 v 0 c -4.044 -1.109 -7.862 1.904 -8.963 5.653 v 0 c -0.26 0.885 -0.378 1.707 -0.405 2.487 v 0 c 0.835 0.275 1.429 1.04 1.291 2.041 v 0 c -0.072 0.505 -0.328 0.918 -0.68 1.221 v 0 c 1.763 3.957 6.999 5.798 11.728 5.607 v 0 c 6.059 -0.244 10.598 -3.323 15.37 -6.687 v 0 c 0.017 -0.011 0.034 -0.021 0.051 -0.033 v 0 c -10.066 -7.058 -14.226 -20.872 -8.07 -32.987 v 0 c -0.07 -0.468 0.25 -0.987 0.776 -0.975 v 0 c 0.204 -0.042 0.421 0.015 0.603 0.14 v 0 c 2.958 0.987 5.932 1.597 9.056 1.83 v 0 c 0.517 0.038 0.924 0.568 0.737 1.081 v 0 c -3.618 9.926 -1.951 21.474 7.735 27.178 v 0 c 0.74 0.435 0.276 1.511 -0.494 1.507 v 0 c -2.778 -0.011 -5.096 0.931 -7.261 2.224 v 0 c 2.567 1.419 5.459 2.395 8.609 2.81 v 0 c 0.102 -0.032 0.219 -0.044 0.352 -0.025 v 0 c 5.032 0.688 10.468 1.003 15.276 -0.958 v 0 c 6.096 -2.487 8.977 -8.636 10.042 -14.79 v 0 c 1.645 -9.505 -3.082 -17.326 -10.199 -22.635 v 0 c -5.029 0.197 -9.803 2.02 -13.509 6.146 v 0 c -5.973 6.649 -4.362 16.255 3.55 20.5 v 0 c 4.224 2.267 9.758 2.325 12.907 -1.846 v 0 c 3.531 -4.675 -0.252 -11.766 -6.261 -9.862 v 0 c -1.011 0.319 -1.355 -1.29 -0.354 -1.607 v 0 c 3.699 -1.171 7.7 0.779 9.223 4.376 v 0 c 1.486 3.514 -0.122 7.448 -2.936 9.78 v 0 c -7.648 6.34 -19.599 -0.771 -21.301 -9.508 v 0 c -2.044 -10.5 7.584 -17.993 17 -19.158 v 0 c -1.406 -0.926 -2.875 -1.771 -4.403 -2.507 v 0 c -0.098 -0.047 -0.17 -0.112 -0.237 -0.179 v 0 c -0.807 -0.232 -0.667 -1.607 0.306 -1.594 v 0 c 7.796 0.095 19.603 -3.323 19.434 -12.87 v 0 c -0.088 -4.904 -3.397 -9.929 -8.823 -9.606 v 0 c -2.4 0.144 -4.573 1.274 -5.872 3.379 v 0 c -1.927 3.123 -0.565 8.069 3.388 7.602 v 0 c 0.011 -0.035 0.014 -0.073 0.03 -0.105 v 0 c -0.155 -0.948 0.217 -1.933 1.121 -2.506 v 0 c 1.319 -0.836 3.28 -0.5 3.991 0.97 v 0 c 0.699 1.443 -0.445 3.08 -1.793 3.62 v 0 c -0.949 0.382 -1.935 0.177 -2.618 -0.433 v 0 c -4.97 1.076 -7.998 -4.41 -6.119 -8.853 v 0 c 2.237 -5.287 9.087 -6.949 13.665 -3.682 v 0 c 4.822 3.442 6.028 10.706 3.216 15.766 v 0 c -2.967 5.338 -10.488 7.713 -16.696 8.24 v 0 c 1.369 0.778 2.683 1.633 3.933 2.56 v 0 c 8.67 -0.253 17.059 3.312 23.331 9.2 v 0 c -7.947 -12.458 -7.219 -28.466 2.373 -40.178 v 0 c 0.143 -0.174 0.319 -0.269 0.499 -0.304 v 0 c 0.182 0.035 0.358 0.13 0.5 0.304 v 0 c 9.612 11.737 10.326 27.785 2.327 40.255 v 0 c 4.326 -4.082 9.657 -7.046 15.407 -8.418 v 0 c -9.796 -12.756 -9.672 -30.198 0.589 -42.726 v 0 c 0.142 -0.174 0.318 -0.269 0.499 -0.304 v 0 c 0.181 0.035 0.357 0.13 0.499 0.304 v 0 c 10.261 12.528 10.384 29.97 0.589 42.726 v 0 c 5.75 1.372 11.081 4.336 15.407 8.418 v 0 c -7.999 -12.47 -7.285 -28.518 2.327 -40.255 v 0 c 0.142 -0.174 0.318 -0.269 0.499 -0.304 v 0 c 0.182 0.035 0.357 0.13 0.499 0.304 v 0 c 9.593 11.712 10.322 27.72 2.375 40.178 v 0 c 6.271 -5.888 14.661 -9.453 23.329 -9.2 v 0 c 1.251 -0.927 2.565 -1.782 3.933 -2.56 v 0 c -6.207 -0.527 -13.727 -2.902 -16.695 -8.24 v 0 c -2.812 -5.06 -1.606 -12.324 3.215 -15.766 v 0 c 4.579 -3.267 11.429 -1.605 13.666 3.682 v 0 c 1.879 4.443 -1.15 9.929 -6.118 8.853 v 0 c -0.684 0.61 -1.67 0.815 -2.619 0.433 v 0 c -1.349 -0.54 -2.493 -2.177 -1.793 -3.62 v 0 c 0.71 -1.47 2.672 -1.806 3.99 -0.97 v 0 c 0.905 0.573 1.277 1.558 1.122 2.506 v 0 c 0.015 0.032 0.019 0.07 0.029 0.105 v 0 c 3.953 0.467 5.317 -4.479 3.389 -7.602 v 0 c -1.299 -2.105 -3.472 -3.235 -5.872 -3.379 v 0 c -5.426 -0.323 -8.736 4.702 -8.822 9.606 v 0 c -0.17 9.547 11.638 12.965 19.433 12.87 v 0 c 0.972 -0.013 1.113 1.362 0.306 1.594 v 0 c -0.067 0.067 -0.14 0.132 -0.237 0.179 v 0 c -1.528 0.736 -2.998 1.581 -4.403 2.507 v 0 c 9.416 1.165 19.043 8.658 16.999 19.158 v 0 c -1.701 8.737 -13.652 15.848 -21.3 9.508 v 0 c -2.813 -2.332 -4.423 -6.266 -2.936 -9.78 v 0 c 1.522 -3.597 5.524 -5.547 9.223 -4.376 v 0 c 1.001 0.317 0.656 1.926 -0.353 1.607 v 0 c -6.01 -1.904 -9.792 5.187 -6.263 9.862 v 0 c 3.15 4.171 8.684 4.113 12.908 1.846 v 0 c 7.912 -4.245 9.523 -13.851 3.551 -20.5 v 0 c -3.706 -4.126 -8.482 -5.949 -13.509 -6.146 v 0 c -7.118 5.309 -11.845 13.13 -10.2 22.635 v 0 c 1.066 6.154 3.947 12.303 10.042 14.79 v 0 c 4.808 1.961 10.244 1.646 15.276 0.958 v 0 c 0.133 -0.019 0.25 -0.007 0.351 0.025 v 0 c 3.152 -0.415 6.043 -1.391 8.61 -2.81 v 0 c -2.166 -1.293 -4.483 -2.235 -7.261 -2.224 v 0 c -0.77 0.004 -1.235 -1.072 -0.495 -1.507 v 0 c 9.687 -5.704 11.354 -17.252 7.736 -27.178 v 0 c -0.187 -0.513 0.22 -1.043 0.737 -1.081 v 0 c 3.124 -0.233 6.097 -0.843 9.055 -1.83 v 0 c 0.182 -0.125 0.399 -0.182 0.603 -0.14 v 0 c 0.527 -0.012 0.847 0.507 0.777 0.976 v 0 c 6.156 12.114 1.996 25.928 -8.07 32.986 v 0 c 0.017 0.012 0.034 0.022 0.051 0.033 v 0 c 4.772 3.364 9.311 6.443 15.369 6.687 v 0 c 4.73 0.191 9.966 -1.65 11.729 -5.607 v 0 c -0.352 -0.303 -0.609 -0.716 -0.679 -1.221 v 0 c -0.139 -1.001 0.455 -1.766 1.29 -2.041 v 0 c -0.027 -0.78 -0.145 -1.602 -0.405 -2.487 v 0 c -1.101 -3.749 -4.919 -6.762 -8.964 -5.653 v 0 c -3.989 1.095 -5.225 5.733 -2.696 8.665 v 0 c 0.542 -0.501 1.296 -0.757 2.08 -0.672 v 0 c 0.142 0.015 0.254 0.061 0.346 0.123 v 0 c 0.009 0.001 0.017 0 0.026 -0.001 v 0 c 0.009 0 0.018 0 0.029 0.001 v 0 c 1.398 0.278 2.13 1.682 1.617 3.008 v 0 c -0.457 1.177 -1.733 1.879 -2.968 1.572 v 0 c -1.118 -0.278 -1.888 -1.305 -1.869 -2.426 v 0 c -3.955 -3.779 -2.449 -10.252 2.916 -11.83 v 0 c 5.978 -1.759 11.147 3.597 11.497 9.281 v 0 c 0.005 0.079 -0.003 0.15 0 0.228 v 0 c 0.348 0.099 0.681 0.287 0.95 0.613 v 0 c 0.152 0.183 0.251 0.388 0.326 0.597 v 0 c 8.627 0.019 17.256 0.039 25.883 0.059 v 0 c 0.35 0.001 0.594 0.182 0.724 0.423 v 0 c 0.242 0.131 0.423 0.375 0.424 0.725 v 0 c 0.019 8.628 0.039 17.256 0.059 25.883 v 0 c 0.209 0.075 0.414 0.173 0.597 0.325 v 0 c 0.325 0.27 0.513 0.603 0.613 0.951 v 0 c 0.035 0.001 0.07 0 0.104 -0.001 v 0 c 0.04 -0.001 0.082 -0.002 0.124 0.001 v 0 c 5.684 0.349 11.039 5.519 9.281 11.497 v 0 c -1.578 5.365 -8.051 6.87 -11.831 2.916 v 0 c -1.121 0.019 -2.147 -0.751 -2.425 -1.869 v 0 c -0.307 -1.235 0.395 -2.511 1.571 -2.967 v 0 c 1.328 -0.514 2.732 0.218 3.009 1.616 v 0 c 0.003 0.02 -0.003 0.035 -0.001 0.055 v 0 c 0.063 0.092 0.109 0.204 0.124 0.347 v 0 c 0.085 0.783 -0.171 1.537 -0.673 2.078 v 0 c 2.932 2.53 7.572 1.294 8.665 -2.696 v 0 c 1.11 -4.044 -1.902 -7.862 -5.652 -8.963 v 0 c -0.885 -0.26 -1.708 -0.378 -2.487 -0.405 v 0 c -0.275 0.835 -1.04 1.429 -2.041 1.291 v 0 c -0.505 -0.072 -0.918 -0.328 -1.221 -0.68 v 0 c -3.956 1.763 -5.798 6.999 -5.607 11.728 v 0 c 0.244 6.059 3.323 10.598 6.686 15.37 v 0 c 0.013 0.017 0.022 0.034 0.034 0.051 v 0 c 7.058 -10.066 20.872 -14.226 32.986 -8.07 v 0 c 0.469 -0.07 0.987 0.25 0.977 0.776 v 0 c 0.041 0.204 -0.016 0.421 -0.141 0.603 v 0 c -0.987 2.958 -1.597 5.932 -1.83 9.056 v 0 c -0.039 0.517 -0.567 0.924 -1.08 0.737 v 0 c -9.926 -3.618 -21.475 -1.951 -27.179 7.735 v 0 c -0.435 0.74 -1.511 0.276 -1.507 -0.494 v 0 c 0.011 -2.778 -0.931 -5.096 -2.225 -7.261 v 0 c -1.417 2.567 -2.395 5.459 -2.809 8.609 v 0 c 0.033 0.102 0.044 0.219 0.026 0.352 v 0 c -0.689 5.032 -1.004 10.468 0.957 15.276 v 0 c 2.486 6.096 8.636 8.977 14.791 10.042 v 0 c 9.505 1.645 17.326 -3.082 22.634 -10.199 v 0 c -0.197 -5.029 -2.02 -9.803 -6.145 -13.509 v 0 c -6.65 -5.973 -16.256 -4.362 -20.501 3.55 v 0 c -2.267 4.224 -2.325 9.758 1.846 12.907 v 0 c 4.676 3.531 11.766 -0.252 9.863 -6.261 v 0 c -0.321 -1.011 1.288 -1.355 1.605 -0.354 v 0 c 1.172 3.699 -0.778 7.7 -4.375 9.223 v 0 c -3.513 1.486 -7.447 -0.122 -9.78 -2.936 v 0 c -6.34 -7.648 0.771 -19.599 9.508 -21.301 v 0 c 10.5 -2.044 17.993 7.584 19.158 17 v 0 c 0.925 -1.406 1.771 -2.875 2.507 -4.403 v 0 c 0.047 -0.097 0.112 -0.17 0.179 -0.237 v 0 c 0.232 -0.807 1.606 -0.667 1.594 0.306 v 0 c -0.095 7.796 3.323 19.603 12.869 19.434 v 0 c 4.904 -0.088 9.93 -3.397 9.606 -8.823 v 0 c -0.143 -2.4 -1.273 -4.573 -3.378 -5.872 v 0 c -3.124 -1.927 -8.069 -0.564 -7.602 3.388 v 0 c 0.035 0.011 0.073 0.014 0.105 0.03 v 0 c 0.948 -0.155 1.933 0.217 2.506 1.121 v 0 c 0.836 1.319 0.5 3.28 -0.969 3.991 v 0 c -1.444 0.699 -3.08 -0.445 -3.622 -1.793 v 0 c -0.381 -0.949 -0.176 -1.935 0.434 -2.618 v 0 c -1.076 -4.97 4.411 -7.998 8.852 -6.119 v 0 c 5.289 2.237 6.95 9.087 3.682 13.665 v 0 c -3.442 4.822 -10.705 6.028 -15.764 3.216 v 0 c -5.339 -2.967 -7.714 -10.489 -8.241 -16.696 v 0 c -0.777 1.368 -1.633 2.683 -2.56 3.933 v 0 c 0.254 8.67 -3.312 17.059 -9.2 23.331 v 0 c 12.459 -7.947 28.465 -7.219 40.178 2.373 v 0 c 0.173 0.143 0.269 0.319 0.304 0.499 v 0 c -0.035 0.182 -0.131 0.358 -0.304 0.5 v 0 c -11.736 9.612 -27.785 10.326 -40.254 2.327 v 0 c 4.08 4.326 7.046 9.657 8.417 15.407 v 0 c 12.756 -9.796 30.198 -9.672 42.726 0.589 v 0 c 0.174 0.142 0.269 0.318 0.304 0.499 v 0 c -0.035 0.181 -0.13 0.357 -0.304 0.499 v 0 c -12.528 10.261 -29.97 10.384 -42.726 0.589 v 0 c -1.371 5.75 -4.337 11.081 -8.417 15.407 v 0 c 12.469 -7.999 28.518 -7.285 40.254 2.327 v 0 c 0.173 0.142 0.269 0.318 0.304 0.499 v 0 c -0.035 0.182 -0.131 0.357 -0.304 0.499 v 0 c -11.713 9.593 -27.719 10.322 -40.178 2.375 v 0 c 5.888 6.271 9.454 14.661 9.2 23.329 v 0 c 0.927 1.251 1.783 2.565 2.56 3.934 v 0 c 0.527 -6.208 2.902 -13.728 8.241 -16.696 v 0 c 5.059 -2.812 12.322 -1.606 15.764 3.215 v 0 c 3.268 4.579 1.607 11.429 -3.682 13.667 v 0 c -4.441 1.878 -9.928 -1.151 -8.852 -6.119 v 0 c -0.61 -0.684 -0.815 -1.67 -0.434 -2.619 v 0 c 0.542 -1.349 2.178 -2.493 3.622 -1.793 v 0 c 1.469 0.711 1.805 2.672 0.969 3.99 v 0 c -0.573 0.905 -1.558 1.277 -2.506 1.122 v 0 c -0.032 0.015 -0.07 0.019 -0.105 0.029 v 0 c -0.467 3.953 4.478 5.317 7.602 3.389 v 0 c 2.105 -1.299 3.235 -3.472 3.378 -5.872 v 0 c 0.324 -5.426 -4.702 -8.736 -9.606 -8.822 v 0 c -9.546 -0.17 -12.964 11.638 -12.869 19.433 v 0 c 0.012 0.972 -1.362 1.113 -1.594 0.306 v 0 c -0.067 -0.067 -0.132 -0.14 -0.179 -0.237 v 0 c -0.736 -1.528 -1.582 -2.998 -2.507 -4.403 v 0 c -1.165 9.416 -8.658 19.043 -19.158 16.999 v 0 c -8.737 -1.701 -15.848 -13.652 -9.508 -21.3 v 0 c 2.333 -2.813 6.267 -4.423 9.78 -2.936 v 0 c 3.597 1.522 5.547 5.524 4.375 9.223 v 0 c -0.317 1.001 -1.926 0.656 -1.605 -0.353 v 0 c 1.903 -6.01 -5.187 -9.792 -9.863 -6.263 v 0 c -4.171 3.15 -4.113 8.684 -1.846 12.908 v 0 c 4.245 7.912 13.851 9.523 20.501 3.551 v 0 c 4.125 -3.706 5.948 -8.482 6.145 -13.509 v 0 c -5.308 -7.118 -13.129 -11.845 -22.634 -10.2 v 0 c -6.155 1.066 -12.305 3.947 -14.791 10.042 v 0 c -1.961 4.808 -1.646 10.244 -0.957 15.276 v 0 c 0.018 0.133 0.007 0.25 -0.026 0.351 v 0 c 0.414 3.152 1.392 6.043 2.809 8.61 v 0 c 1.294 -2.166 2.236 -4.483 2.225 -7.261 v 0 c -0.004 -0.77 1.072 -1.235 1.507 -0.495 v 0 c 5.704 9.687 17.253 11.354 27.179 7.736 v 0 c 0.513 -0.187 1.041 0.22 1.08 0.737 v 0 c 0.233 3.124 0.843 6.098 1.83 9.055 v 0 c 0.125 0.183 0.182 0.4 0.141 0.603 v 0 c 0.01 0.527 -0.508 0.847 -0.977 0.777 v 0 c -12.114 6.156 -25.928 1.996 -32.986 -8.07 v 0 c -0.012 0.017 -0.021 0.034 -0.034 0.051 v 0 c -3.363 4.772 -6.442 9.311 -6.686 15.369 v 0 c -0.191 4.73 1.651 9.966 5.607 11.729 v 0 c 0.303 -0.352 0.716 -0.609 1.221 -0.679 v 0 c 1.001 -0.139 1.766 0.455 2.041 1.29 v 0 c 0.779 -0.027 1.602 -0.145 2.487 -0.405 v 0 c 3.75 -1.101 6.762 -4.919 5.652 -8.964 v 0 c -1.093 -3.989 -5.733 -5.225 -8.665 -2.696 v 0 c 0.502 0.542 0.758 1.296 0.673 2.08 v 0 c -0.015 0.142 -0.061 0.254 -0.124 0.346 v 0 c -0.002 0.02 0.004 0.035 0.001 0.055 v 0 c -0.277 1.398 -1.681 2.13 -3.009 1.617 v 0 c -1.176 -0.457 -1.878 -1.733 -1.571 -2.968 v 0 c 0.278 -1.118 1.304 -1.888 2.425 -1.869 v 0 c 3.78 -3.955 10.253 -2.449 11.831 2.916 v 0 c 1.758 5.978 -3.597 11.147 -9.281 11.497 v 0 c -0.042 0.002 -0.083 0.001 -0.122 0 v 0 c -0.036 0 -0.071 -0.001 -0.106 0 v 0 c -0.099 0.348 -0.288 0.681 -0.613 0.95 v 0 c -0.183 0.152 -0.388 0.251 -0.597 0.326 v 0 c -0.02 8.627 -0.04 17.256 -0.059 25.883 v 0 c -0.001 0.35 -0.182 0.594 -0.424 0.724 v 0 c -0.13 0.242 -0.374 0.423 -0.724 0.424 v 0 c -8.627 0.019 -17.256 0.039 -25.883 0.059 v 0 c -0.075 0.209 -0.174 0.414 -0.326 0.597 v 0 c -0.269 0.325 -0.602 0.514 -0.95 0.613 v 0 c -0.003 0.078 0.005 0.15 0 0.228 v 0 c -0.35 5.684 -5.519 11.039 -11.497 9.281 v 0 c -5.365 -1.578 -6.871 -8.051 -2.916 -11.831 v 0 c -0.019 -1.121 0.751 -2.147 1.869 -2.425 v 0 c 1.235 -0.307 2.511 0.395 2.968 1.571 v 0 c 0.513 1.328 -0.219 2.732 -1.617 3.009 v 0 c -0.011 0.002 -0.02 0.001 -0.029 0 v 0 c -0.009 -0.001 -0.017 -0.002 -0.026 0 v 0 c -0.092 0.062 -0.204 0.108 -0.346 0.123 v 0 c -0.784 0.085 -1.538 -0.171 -2.08 -0.673 v 0 c -2.529 2.933 -1.293 7.572 2.696 8.665 v 0 c 4.045 1.11 7.863 -1.902 8.964 -5.652 v 0 c 0.26 -0.885 0.378 -1.708 0.405 -2.487 v 0 c -0.835 -0.275 -1.429 -1.04 -1.29 -2.041 v 0 c 0.07 -0.505 0.327 -0.918 0.679 -1.221 v 0 c -1.763 -3.956 -6.999 -5.798 -11.729 -5.607 v 0 c -6.058 0.244 -10.597 3.323 -15.369 6.686 v 0 c -0.017 0.013 -0.034 0.022 -0.051 0.034 v 0 c 10.066 7.058 14.226 20.872 8.07 32.986 v 0 c 0.07 0.469 -0.25 0.987 -0.777 0.977 v 0 c -0.204 0.041 -0.421 -0.016 -0.603 -0.141 v 0 c -2.958 -0.987 -5.931 -1.597 -9.055 -1.83 v 0 c -0.517 -0.038 -0.924 -0.567 -0.737 -1.08 v 0 c 3.618 -9.926 1.951 -21.475 -7.736 -27.179 v 0 c -0.74 -0.435 -0.275 -1.511 0.495 -1.507 v 0 c 2.778 0.011 5.095 -0.931 7.261 -2.225 v 0 c -2.567 -1.417 -5.458 -2.395 -8.61 -2.809 v 0 c -0.101 0.033 -0.218 0.044 -0.351 0.026 v 0 c -5.032 -0.689 -10.468 -1.004 -15.276 0.957 v 0 c -6.095 2.486 -8.976 8.636 -10.042 14.791 v 0 c -1.645 9.505 3.082 17.326 10.2 22.634 v 0 c 5.027 -0.197 9.803 -2.02 13.509 -6.145 v 0 c 5.972 -6.65 4.361 -16.256 -3.551 -20.501 v 0 c -4.224 -2.267 -9.758 -2.325 -12.908 1.846 v 0 c -3.529 4.676 0.253 11.766 6.263 9.863 v 0 c 1.009 -0.321 1.354 1.288 0.353 1.605 v 0 c -3.699 1.172 -7.701 -0.778 -9.223 -4.375 v 0 c -1.487 -3.513 0.123 -7.447 2.936 -9.78 v 0 c 7.648 -6.34 19.599 0.771 21.3 9.508 v 0 c 2.044 10.5 -7.583 17.993 -16.999 19.158 v 0 c 1.405 0.925 2.875 1.771 4.403 2.507 v 0 c 0.097 0.047 0.17 0.112 0.237 0.179 v 0 c 0.807 0.232 0.666 1.606 -0.306 1.594 v 0 c -7.795 -0.095 -19.603 3.323 -19.433 12.869 v 0 c 0.086 4.904 3.396 9.93 8.822 9.606 v 0 c 2.4 -0.143 4.573 -1.273 5.872 -3.378 v 0 c 1.928 -3.124 0.564 -8.069 -3.389 -7.602 v 0 c -0.01 0.035 -0.014 0.073 -0.029 0.105 v 0 c 0.155 0.948 -0.217 1.933 -1.122 2.506 v 0 c -1.318 0.836 -3.28 0.5 -3.99 -0.969 v 0 c -0.7 -1.444 0.444 -3.08 1.793 -3.622 v 0 c 0.949 -0.381 1.935 -0.176 2.619 0.434 v 0 c 4.968 -1.076 7.997 4.411 6.118 8.852 v 0 c -2.237 5.289 -9.087 6.95 -13.666 3.682 v 0 c -4.821 -3.441 -6.027 -10.705 -3.215 -15.764 v 0 c 2.968 -5.339 10.488 -7.714 16.695 -8.241 v 0 c -1.368 -0.777 -2.682 -1.633 -3.933 -2.56 v 0 c -8.669 0.253 -17.058 -3.312 -23.329 -9.2 v 0 c 7.947 12.459 7.218 28.465 -2.375 40.178 v 0 c -0.142 0.173 -0.317 0.269 -0.499 0.304 v 0 c -0.181 -0.035 -0.357 -0.131 -0.499 -0.304 v 0 c -9.612 -11.736 -10.326 -27.785 -2.327 -40.254 v 0 c -4.326 4.08 -9.657 7.046 -15.407 8.417 v 0 c 9.796 12.756 9.672 30.198 -0.589 42.726 v 0 c -0.142 0.174 -0.318 0.269 -0.499 0.304 v 0 c -0.181 -0.035 -0.357 -0.13 -0.499 -0.304 M 300 506.961 c 8.881 -11.794 8.965 -27.642 0 -39.471 v 0 c -8.964 11.829 -8.882 27.677 0 39.471 m 19.321 -10.889 c 8.881 -11.794 8.965 -27.642 0 -39.471 v 0 c -8.964 11.829 -8.881 27.677 0 39.471 m -38.643 0 c 8.882 -11.794 8.965 -27.642 0 -39.471 v 0 c -8.964 11.829 -8.881 27.677 0 39.471 m 59.903 -12.54 c 0.32 1.237 2.696 0.333 1.927 -0.789 v 0 c -0.129 -0.137 -0.207 -0.321 -0.223 -0.522 v 0 c -0.095 -0.043 -0.201 -0.062 -0.312 -0.062 v 0 c -0.679 0 -1.56 0.725 -1.392 1.373 m -82.866 -1.311 c -0.017 0.201 -0.094 0.385 -0.224 0.522 v 0 c -0.768 1.122 1.607 2.026 1.928 0.789 v 0 c 0.168 -0.648 -0.713 -1.373 -1.392 -1.373 v 0 c -0.111 0 -0.217 0.019 -0.312 0.062 m 62.168 -29.191 c 0.041 0.035 0.086 0.047 0.123 0.094 v 0 c 5.189 6.501 14.639 11.946 23.728 12.567 v 0 c -6.654 -5.633 -10.85 -13.509 -9.207 -22.9 v 0 c 1.01 -5.773 3.578 -11.803 8.82 -14.899 v 0 c 5.166 -3.052 11.512 -3.012 17.312 -2.292 v 0 c 0.095 -0.029 0.2 -0.046 0.32 -0.035 v 0 c 4.111 0.386 7.826 1.656 11.027 3.575 v 0 c 1.968 -1.338 3.869 -2.858 5.949 -4.084 v 0 c 3.562 -2.101 7.645 -3.265 11.781 -3.289 v 0 c 5.242 -0.031 10.695 2.084 12.527 6.716 v 0 c 0.275 0.012 0.548 0.06 0.806 0.177 v 0 c 0.448 0.203 0.787 0.552 0.996 0.962 v 0 c 8.5 -0.019 17 -0.039 25.5 -0.057 v 0 c 0.018 -8.5 0.038 -17.001 0.057 -25.499 v 0 c -0.41 -0.209 -0.759 -0.549 -0.962 -0.997 v 0 c -0.117 -0.258 -0.165 -0.531 -0.177 -0.806 v 0 c -4.632 -1.832 -6.747 -7.285 -6.716 -12.527 v 0 c 0.024 -4.136 1.188 -8.219 3.289 -11.781 v 0 c 1.226 -2.08 2.746 -3.981 4.084 -5.949 v 0 c -1.919 -3.201 -3.189 -6.916 -3.575 -11.027 v 0 c -0.011 -0.12 0.006 -0.225 0.035 -0.32 v 0 c -0.72 -5.8 -0.76 -12.146 2.292 -17.312 v 0 c 3.096 -5.242 9.126 -7.81 14.899 -8.82 v 0 c 9.391 -1.643 17.267 2.553 22.9 9.207 v 0 c -0.621 -9.089 -6.066 -18.539 -12.567 -23.728 v 0 c -0.047 -0.037 -0.059 -0.082 -0.094 -0.123 v 0 c -1.408 0.08 -2.817 0.158 -4.225 0.237 v 0 c 4.284 3.452 7.535 7.769 9.692 12.957 v 0 c 0.351 0.843 -0.735 1.295 -1.33 0.871 v 0 c -6.18 -4.414 -13.73 -4.439 -20.054 -0.271 v 0 c -0.437 0.287 -1.075 0.081 -1.232 -0.428 v 0 c -0.669 -2.157 -1.575 -4.168 -2.701 -6.019 v 0 c -2.76 2.659 -5.742 5.118 -8.307 8.025 v 0 c -5.656 6.413 -8.003 14.899 -7.029 23.317 v 0 c 1.709 -0.161 3.252 0.946 3.667 2.593 v 0 c 0.128 0.089 0.24 0.209 0.298 0.4 v 0 c 0.618 1.994 -0.405 4.296 -2.48 4.899 v 0 c -2.078 0.603 -4.388 -0.655 -4.929 -2.761 v 0 c -0.461 -1.791 0.321 -3.665 1.844 -4.588 v 0 c -0.002 -0.008 -0.007 -0.013 -0.008 -0.022 v 0 c -0.984 -7.61 0.651 -15.346 4.953 -21.747 v 0 c 3 -4.462 7.309 -7.73 11.097 -11.455 v 0 c -1.785 -2.556 -4.013 -4.773 -6.671 -6.57 v 0 c 4.956 -3.35 8.464 -8.115 10.266 -13.928 v 0 c 0.157 -0.508 0.795 -0.714 1.232 -0.427 v 0 c 1.956 1.289 4.028 2.174 6.141 2.655 v 0 c 0.723 -2.459 1.166 -5.007 1.31 -7.621 v 0 c -0.144 -2.614 -0.587 -5.163 -1.31 -7.622 v 0 c -2.113 0.482 -4.185 1.368 -6.141 2.656 v 0 c -0.437 0.288 -1.075 0.081 -1.232 -0.427 v 0 c -1.802 -5.812 -5.31 -10.579 -10.266 -13.929 v 0 c 2.658 -1.797 4.886 -4.014 6.671 -6.569 v 0 c -3.788 -3.725 -8.097 -6.993 -11.097 -11.455 v 0 c -4.302 -6.401 -5.937 -14.137 -4.953 -21.747 v 0 c 0.001 -0.009 0.006 -0.014 0.008 -0.022 v 0 c -1.523 -0.923 -2.305 -2.796 -1.844 -4.588 v 0 c 0.541 -2.107 2.851 -3.364 4.929 -2.761 v 0 c 2.075 0.603 3.098 2.905 2.48 4.898 v 0 c -0.058 0.191 -0.17 0.313 -0.298 0.401 v 0 c -0.415 1.646 -1.958 2.755 -3.667 2.594 v 0 c -0.974 8.417 1.373 16.902 7.029 23.316 v 0 c 2.565 2.908 5.547 5.367 8.307 8.025 v 0 c 1.126 -1.85 2.032 -3.862 2.701 -6.019 v 0 c 0.157 -0.509 0.795 -0.716 1.232 -0.428 v 0 c 6.324 4.168 13.874 4.143 20.054 -0.27 v 0 c 0.595 -0.425 1.681 0.028 1.33 0.87 v 0 c -2.157 5.188 -5.408 9.504 -9.692 12.957 v 0 c 1.408 0.078 2.817 0.158 4.225 0.236 v 0 c 0.035 -0.04 0.047 -0.085 0.094 -0.122 v 0 c 6.501 -5.189 11.946 -14.639 12.567 -23.728 v 0 c -5.633 6.654 -13.509 10.849 -22.9 9.207 v 0 c -5.773 -1.01 -11.803 -3.578 -14.899 -8.82 v 0 C 424.84 251.487 424.88 245.14 425.6 239.341 v 0 c -0.029 -0.095 -0.046 -0.199 -0.035 -0.32 v 0 c 0.386 -4.11 1.656 -7.825 3.575 -11.028 v 0 c -1.338 -1.968 -2.858 -3.868 -4.084 -5.948 v 0 c -2.101 -3.562 -3.265 -7.644 -3.289 -11.782 v 0 c -0.031 -5.242 2.084 -10.693 6.716 -12.527 v 0 c 0.012 -0.273 0.06 -0.547 0.177 -0.805 v 0 c 0.203 -0.448 0.552 -0.788 0.962 -0.997 v 0 c -0.019 -8.499 -0.039 -16.999 -0.057 -25.498 v 0 c -8.5 -0.019 -17.001 -0.039 -25.5 -0.058 v 0 c -0.209 0.41 -0.548 0.759 -0.996 0.962 v 0 c -0.258 0.116 -0.531 0.166 -0.806 0.178 v 0 c -1.832 4.631 -7.285 6.746 -12.527 6.714 v 0 c -4.136 -0.024 -8.219 -1.188 -11.781 -3.287 v 0 c -2.08 -1.227 -3.981 -2.748 -5.949 -4.084 v 0 c -3.201 1.918 -6.916 3.187 -11.027 3.573 v 0 c -0.12 0.012 -0.225 -0.005 -0.32 -0.034 v 0 c -5.799 0.72 -12.146 0.761 -17.312 -2.291 v 0 c -5.242 -3.097 -7.81 -9.127 -8.82 -14.9 v 0 c -1.643 -9.391 2.553 -17.267 9.207 -22.9 v 0 c -9.089 0.622 -18.539 6.067 -23.728 12.567 v 0 c -0.037 0.046 -0.082 0.059 -0.123 0.093 v 0 c 0.08 1.409 0.158 2.817 0.236 4.226 v 0 c 3.453 -4.284 7.77 -7.535 12.958 -9.692 v 0 c 0.843 -0.351 1.295 0.736 0.871 1.331 v 0 c -4.414 6.179 -4.439 13.729 -0.271 20.053 v 0 c 0.287 0.436 0.081 1.074 -0.428 1.232 v 0 c -2.157 0.669 -4.168 1.575 -6.019 2.701 v 0 c 2.659 2.761 5.118 5.741 8.025 8.306 v 0 c 6.413 5.656 14.899 8.003 23.317 7.03 v 0 c -0.161 -1.709 0.946 -3.252 2.593 -3.668 v 0 c 0.089 -0.127 0.209 -0.239 0.4 -0.298 v 0 c 1.994 -0.616 4.296 0.406 4.899 2.481 v 0 c 0.603 2.078 -0.655 4.388 -2.761 4.93 v 0 c -1.791 0.46 -3.665 -0.322 -4.588 -1.844 v 0 c -0.008 0 -0.013 0.006 -0.022 0.007 v 0 c -7.61 0.984 -15.346 -0.651 -21.747 -4.953 v 0 c -4.462 -3 -7.73 -7.309 -11.455 -11.097 v 0 c -2.556 1.786 -4.773 4.012 -6.57 6.672 v 0 c -3.35 -4.957 -8.115 -8.466 -13.928 -10.267 v 0 c -0.508 -0.158 -0.714 -0.796 -0.427 -1.232 v 0 c 1.289 -1.955 2.174 -4.029 2.656 -6.142 v 0 c -2.46 -0.722 -5.008 -1.165 -7.622 -1.309 v 0 c -2.614 0.144 -5.163 0.587 -7.622 1.309 v 0 c 0.482 2.113 1.368 4.187 2.656 6.142 v 0 c 0.288 0.436 0.081 1.074 -0.427 1.232 v 0 c -5.812 1.801 -10.579 5.31 -13.929 10.267 v 0 c -1.797 -2.66 -4.014 -4.886 -6.569 -6.672 v 0 c -3.726 3.788 -6.993 8.097 -11.456 11.097 v 0 c -6.4 4.302 -14.136 5.937 -21.746 4.953 v 0 c -0.009 -0.001 -0.014 -0.007 -0.022 -0.007 v 0 c -0.923 1.522 -2.796 2.304 -4.588 1.844 v 0 c -2.107 -0.542 -3.364 -2.852 -2.761 -4.93 v 0 c 0.603 -2.075 2.905 -3.097 4.898 -2.481 v 0 c 0.191 0.059 0.313 0.171 0.401 0.298 v 0 c 1.646 0.416 2.755 1.959 2.594 3.668 v 0 c 8.417 0.973 16.902 -1.374 23.316 -7.03 v 0 c 2.908 -2.565 5.367 -5.545 8.025 -8.306 v 0 c -1.85 -1.126 -3.862 -2.032 -6.019 -2.701 v 0 c -0.509 -0.158 -0.716 -0.796 -0.428 -1.232 v 0 c 4.168 -6.324 4.143 -13.874 -0.27 -20.053 v 0 c -0.425 -0.595 0.028 -1.682 0.87 -1.331 v 0 c 5.188 2.157 9.505 5.408 12.957 9.692 v 0 c 0.079 -1.409 0.158 -2.817 0.236 -4.226 v 0 c -0.04 -0.034 -0.085 -0.047 -0.122 -0.093 v 0 c -5.189 -6.5 -14.639 -11.945 -23.728 -12.567 v 0 c 6.654 5.633 10.849 13.509 9.207 22.9 v 0 c -1.01 5.773 -3.578 11.803 -8.82 14.9 v 0 c -5.166 3.052 -11.513 3.011 -17.312 2.291 v 0 c -0.095 0.029 -0.199 0.046 -0.32 0.034 v 0 c -4.11 -0.386 -7.825 -1.655 -11.028 -3.573 v 0 c -1.968 1.336 -3.868 2.857 -5.948 4.084 v 0 c -3.562 2.099 -7.644 3.263 -11.782 3.287 v 0 c -5.242 0.032 -10.693 -2.083 -12.527 -6.714 v 0 c -0.273 -0.012 -0.547 -0.062 -0.805 -0.178 v 0 c -0.448 -0.203 -0.788 -0.552 -0.997 -0.962 v 0 c -8.499 0.019 -16.999 0.039 -25.498 0.058 v 0 c -0.019 8.499 -0.039 16.999 -0.058 25.498 v 0 c 0.41 0.209 0.759 0.549 0.962 0.997 v 0 c 0.116 0.258 0.166 0.532 0.178 0.805 v 0 c 4.631 1.834 6.746 7.285 6.714 12.527 v 0 c -0.024 4.138 -1.188 8.22 -3.287 11.782 v 0 c -1.227 2.08 -2.748 3.98 -4.084 5.948 v 0 c 1.918 3.203 3.187 6.918 3.573 11.028 v 0 c 0.012 0.121 -0.005 0.225 -0.034 0.32 v 0 c 0.72 5.799 0.761 12.146 -2.291 17.312 v 0 c -3.097 5.242 -9.127 7.81 -14.9 8.82 v 0 c -9.391 1.642 -17.267 -2.553 -22.9 -9.207 v 0 c 0.622 9.089 6.067 18.539 12.567 23.728 v 0 c 0.046 0.037 0.059 0.082 0.093 0.122 v 0 c 1.409 -0.078 2.817 -0.157 4.226 -0.236 v 0 c -4.284 -3.452 -7.535 -7.769 -9.692 -12.957 v 0 c -0.351 -0.842 0.736 -1.295 1.331 -0.87 v 0 c 6.179 4.413 13.729 4.438 20.053 0.27 v 0 c 0.436 -0.288 1.074 -0.081 1.232 0.428 v 0 c 0.669 2.157 1.575 4.169 2.701 6.019 v 0 c 2.761 -2.658 5.741 -5.117 8.306 -8.025 v 0 c 5.656 -6.414 8.003 -14.899 7.03 -23.316 v 0 c -1.709 0.161 -3.252 -0.948 -3.668 -2.594 v 0 c -0.127 -0.088 -0.239 -0.21 -0.298 -0.401 v 0 c -0.616 -1.993 0.406 -4.295 2.481 -4.898 v 0 c 2.078 -0.603 4.388 0.654 4.93 2.761 v 0 c 0.46 1.792 -0.322 3.665 -1.844 4.588 v 0 c 0 0.008 0.006 0.013 0.007 0.022 v 0 c 0.984 7.61 -0.651 15.346 -4.954 21.747 v 0 c -2.999 4.462 -7.308 7.73 -11.096 11.455 v 0 c 1.786 2.555 4.012 4.772 6.672 6.569 v 0 c -4.957 3.35 -8.466 8.117 -10.267 13.929 v 0 c -0.158 0.508 -0.796 0.715 -1.232 0.427 v 0 c -1.955 -1.288 -4.029 -2.174 -6.142 -2.656 v 0 c -0.722 2.459 -1.165 5.008 -1.309 7.622 v 0 c 0.144 2.614 0.587 5.162 1.309 7.621 v 0 c 2.113 -0.481 4.187 -1.366 6.142 -2.655 v 0 c 0.436 -0.287 1.074 -0.081 1.232 0.427 v 0 c 1.801 5.813 5.31 10.578 10.267 13.928 v 0 c -2.66 1.797 -4.886 4.014 -6.672 6.57 v 0 c 3.788 3.725 8.097 6.993 11.096 11.455 v 0 c 4.303 6.401 5.938 14.137 4.954 21.747 v 0 c -0.001 0.009 -0.007 0.014 -0.007 0.022 v 0 c 1.522 0.923 2.304 2.797 1.844 4.588 v 0 c -0.542 2.106 -2.852 3.364 -4.93 2.761 v 0 c -2.075 -0.603 -3.097 -2.905 -2.481 -4.899 v 0 c 0.059 -0.191 0.171 -0.311 0.298 -0.4 v 0 c 0.416 -1.647 1.959 -2.754 3.668 -2.593 v 0 c 0.973 -8.418 -1.374 -16.904 -7.03 -23.317 v 0 c -2.565 -2.907 -5.545 -5.366 -8.306 -8.025 v 0 c -1.126 1.851 -2.032 3.862 -2.701 6.019 v 0 c -0.158 0.509 -0.796 0.715 -1.232 0.428 v 0 c -6.324 -4.168 -13.874 -4.143 -20.053 0.271 v 0 c -0.595 0.424 -1.682 -0.028 -1.331 -0.871 v 0 c 2.157 -5.188 5.408 -9.505 9.692 -12.958 v 0 c -1.409 -0.078 -2.817 -0.156 -4.226 -0.236 v 0 c -0.034 0.041 -0.047 0.086 -0.093 0.123 v 0 c -6.5 5.189 -11.945 14.639 -12.567 23.728 v 0 c 5.633 -6.654 13.509 -10.85 22.9 -9.207 v 0 c 5.773 1.01 11.803 3.578 14.9 8.82 v 0 c 3.052 5.166 3.011 11.512 2.291 17.312 v 0 c 0.029 0.095 0.046 0.2 0.034 0.32 v 0 c -0.386 4.111 -1.655 7.826 -3.573 11.027 v 0 c 1.336 1.968 2.857 3.869 4.084 5.949 v 0 c 2.099 3.562 3.263 7.645 3.287 11.781 v 0 c 0.032 5.242 -2.083 10.695 -6.714 12.527 v 0 c -0.012 0.275 -0.062 0.548 -0.178 0.806 v 0 c -0.203 0.448 -0.552 0.788 -0.962 0.997 v 0 c 0.019 8.499 0.039 16.999 0.058 25.499 v 0 c 8.499 0.018 16.999 0.038 25.498 0.057 v 0 c 0.209 -0.41 0.549 -0.759 0.997 -0.962 v 0 c 0.258 -0.117 0.532 -0.165 0.805 -0.177 v 0 c 1.834 -4.632 7.285 -6.747 12.527 -6.716 v 0 c 4.138 0.024 8.22 1.188 11.782 3.289 v 0 c 2.08 1.226 3.98 2.746 5.948 4.084 v 0 c 3.203 -1.919 6.918 -3.189 11.028 -3.575 v 0 c 0.121 -0.011 0.225 0.006 0.32 0.035 v 0 c 5.799 -0.72 12.146 -0.76 17.312 2.292 v 0 c 5.242 3.096 7.81 9.126 8.82 14.899 v 0 c 1.642 9.391 -2.553 17.267 -9.207 22.9 v 0 c 9.089 -0.621 18.539 -6.066 23.728 -12.567 v 0 c 0.037 -0.047 0.082 -0.059 0.122 -0.094 v 0 c -0.078 -1.408 -0.158 -2.817 -0.236 -4.225 v 0 c -3.453 4.285 -7.769 7.535 -12.957 9.692 v 0 c -0.842 0.351 -1.295 -0.735 -0.87 -1.33 v 0 c 4.413 -6.18 4.438 -13.73 0.27 -20.054 v 0 c -0.288 -0.437 -0.081 -1.075 0.428 -1.232 v 0 c 2.157 -0.669 4.169 -1.575 6.019 -2.701 v 0 c -2.658 -2.761 -5.117 -5.742 -8.025 -8.307 v 0 c -6.414 -5.656 -14.899 -8.003 -23.316 -7.029 v 0 c 0.161 1.709 -0.948 3.252 -2.594 3.667 v 0 c -0.088 0.128 -0.21 0.24 -0.401 0.298 v 0 c -1.993 0.618 -4.295 -0.405 -4.898 -2.48 v 0 c -0.603 -2.078 0.654 -4.388 2.761 -4.929 v 0 c 1.792 -0.461 3.665 0.321 4.588 1.844 v 0 c 0.008 -0.002 0.013 -0.007 0.022 -0.008 v 0 c 7.61 -0.984 15.346 0.651 21.746 4.953 v 0 c 4.463 3 7.73 7.309 11.456 11.097 v 0 c 2.555 -1.785 4.772 -4.013 6.569 -6.671 v 0 c 3.35 4.956 8.117 8.464 13.929 10.266 v 0 c 0.508 0.157 0.715 0.795 0.427 1.232 v 0 c -1.288 1.956 -2.174 4.028 -2.656 6.141 v 0 c 2.459 0.723 5.008 1.166 7.622 1.31 v 0 c 2.614 -0.144 5.162 -0.587 7.621 -1.31 v 0 c -0.481 -2.113 -1.366 -4.185 -2.655 -6.141 v 0 c -0.287 -0.437 -0.081 -1.075 0.427 -1.232 v 0 c 5.813 -1.802 10.578 -5.31 13.928 -10.266 v 0 c 1.797 2.658 4.014 4.886 6.57 6.671 v 0 c 3.725 -3.788 6.993 -8.097 11.455 -11.097 v 0 c 6.401 -4.302 14.137 -5.937 21.747 -4.953 v 0 c 0.009 0.001 0.014 0.006 0.022 0.008 v 0 c 0.923 -1.523 2.797 -2.305 4.588 -1.844 v 0 c 2.106 0.541 3.364 2.851 2.761 4.929 v 0 c -0.603 2.075 -2.905 3.098 -4.899 2.48 v 0 c -0.191 -0.058 -0.311 -0.17 -0.4 -0.298 v 0 c -1.647 -0.415 -2.754 -1.958 -2.593 -3.667 v 0 c -8.418 -0.974 -16.904 1.373 -23.317 7.029 v 0 c -2.907 2.565 -5.366 5.547 -8.025 8.307 v 0 c 1.851 1.126 3.862 2.032 6.019 2.701 v 0 c 0.509 0.157 0.715 0.795 0.428 1.232 v 0 c -4.168 6.324 -4.143 13.874 0.271 20.054 v 0 c 0.424 0.595 -0.028 1.681 -0.871 1.33 v 0 c -5.188 -2.157 -9.505 -5.407 -12.957 -9.692 v 0 c -0.079 1.408 -0.157 2.817 -0.237 4.225 m -38.087 0.586 c 4.258 5.076 11.064 9.45 18.204 11.256 v 0 c 7.14 -1.806 13.946 -6.179 18.204 -11.256 v 0 c 0.088 -1.581 0.176 -3.162 0.265 -4.744 v 0 c -3.444 4.252 -7.742 7.479 -12.904 9.625 v 0 c -0.842 0.351 -1.295 -0.735 -0.87 -1.33 v 0 c 2.706 -3.789 3.755 -8.093 3.207 -12.314 v 0 c -2.552 0.742 -5.192 1.205 -7.902 1.353 v 0 c -2.71 -0.148 -5.351 -0.611 -7.901 -1.353 v 0 c -0.548 4.221 0.5 8.525 3.206 12.314 v 0 c 0.425 0.595 -0.029 1.681 -0.871 1.33 v 0 c -5.161 -2.146 -9.459 -5.373 -12.903 -9.625 v 0 c 0.088 1.582 0.176 3.163 0.265 4.744 m 83.738 -19.827 c 8.317 6.21 9.941 17.142 6.77 26.807 v 0 c 2.71 0.271 5.313 0.81 7.913 1.637 v 0 c 5.836 -11.52 1.622 -24.669 -8.162 -31.129 v 0 c -2.065 1.303 -4.164 2.286 -6.521 2.685 m -145.75 28.444 c 2.6 -0.827 5.202 -1.366 7.911 -1.637 v 0 c -3.169 -9.665 -1.546 -20.597 6.771 -26.807 v 0 c -2.357 -0.399 -4.456 -1.382 -6.522 -2.685 v 0 c -9.782 6.46 -13.997 19.609 -8.16 31.129 m 100.901 -23.564 c -0.142 2.544 -0.283 5.089 -0.425 7.634 v 0 c 2.888 4.064 6.575 7.265 10.962 9.521 v 0 c -3.154 -5.97 -2.991 -12.773 0.542 -18.731 v 0 c -2.027 -0.707 -3.924 -1.631 -5.688 -2.736 v 0 c -1.634 1.605 -3.395 3.078 -5.391 4.312 m -11.224 5.685 c 0.556 3.879 -0.117 7.829 -2.041 11.47 v 0 c 4.513 -2.321 8.289 -5.636 11.212 -9.867 v 0 c 0.123 -2.199 0.245 -4.398 0.368 -6.597 v 0 c -2.959 2.171 -6.163 3.836 -9.539 4.994 m -28.093 1.602 c 2.923 4.232 6.699 7.547 11.211 9.868 v 0 c -1.923 -3.641 -2.596 -7.591 -2.04 -11.471 v 0 c -3.376 -1.157 -6.58 -2.822 -9.539 -4.993 v 0 c 0.122 2.199 0.245 4.398 0.368 6.596 m -13.132 -8.863 c 3.532 5.958 3.695 12.761 0.542 18.731 v 0 c 4.387 -2.256 8.075 -5.457 10.963 -9.521 v 0 c -0.143 -2.545 -0.285 -5.09 -0.427 -7.634 v 0 c -1.994 -1.235 -3.756 -2.707 -5.391 -4.312 v 0 c -1.763 1.105 -3.659 2.029 -5.687 2.736 m 38.642 0 c 1.08 1.821 1.807 3.725 2.259 5.656 v 0 c 3.503 -1.216 6.805 -3.016 9.821 -5.393 v 0 c 0.184 -2.712 0.027 -5.381 -0.453 -8.046 v 0 c -3.121 3.537 -7.055 6.187 -11.627 7.783 m -25.836 0.263 c 3.016 2.377 6.318 4.177 9.822 5.393 v 0 c 0.452 -1.931 1.178 -3.835 2.258 -5.656 v 0 c -4.572 -1.596 -8.506 -4.246 -11.626 -7.783 v 0 c -0.481 2.665 -0.638 5.334 -0.454 8.046 m 39.587 -0.622 c 1.461 -0.981 2.817 -2.083 4.08 -3.286 v 0 c -1.656 -1.183 -3.167 -2.553 -4.529 -4.089 v 0 c 0.416 2.443 0.566 4.895 0.449 7.375 m -45.338 -3.286 c 1.264 1.203 2.618 2.305 4.081 3.286 v 0 c -0.118 -2.48 0.032 -4.932 0.447 -7.375 v 0 c -1.361 1.536 -2.872 2.907 -4.528 4.089 m 115.747 -2.616 c 0.087 -0.06 0.189 -0.106 0.314 -0.132 v 0 c 1.014 -0.2 0.243 -1.644 -0.654 -1.358 v 0 c -0.833 0.266 -0.683 1.583 0.252 1.482 v 0 c 0.004 -0.001 0.009 -0.001 0.013 -0.001 v 0 c 0.026 0 0.049 0.009 0.075 0.009 M 208.648 430.7 c 0.125 0.026 0.228 0.072 0.314 0.132 v 0 c 0.031 0 0.056 -0.012 0.087 -0.008 v 0 c 0.936 0.101 1.087 -1.216 0.253 -1.482 v 0 c -0.08 -0.025 -0.16 -0.037 -0.237 -0.037 v 0 c -0.784 0 -1.341 1.213 -0.417 1.395 m 151.851 -13.622 c -0.721 1.224 -0.074 2.817 1.412 2.905 v 0 c 0.296 0.018 0.493 0.165 0.614 0.357 v 0 c 2.423 0.308 3.463 -3.359 0.977 -4.284 v 0 c -0.278 -0.104 -0.571 -0.154 -0.863 -0.154 v 0 c -0.851 0 -1.696 0.423 -2.14 1.176 m -124.002 -1.022 c -2.485 0.925 -1.446 4.592 0.979 4.284 v 0 c 0.12 -0.192 0.317 -0.339 0.613 -0.357 v 0 c 1.487 -0.088 2.134 -1.681 1.412 -2.905 v 0 c -0.444 -0.752 -1.289 -1.176 -2.141 -1.176 v 0 c -0.292 0 -0.585 0.05 -0.863 0.154 m 192.845 -25.358 c -0.286 0.897 1.158 1.668 1.358 0.654 v 0 c 0.026 -0.125 0.072 -0.227 0.132 -0.314 v 0 c 0 -0.03 -0.012 -0.056 -0.008 -0.088 v 0 c 0.056 -0.52 -0.327 -0.798 -0.723 -0.798 v 0 c -0.316 0 -0.641 0.176 -0.759 0.546 m -260.166 0.252 c 0.003 0.032 -0.008 0.058 -0.007 0.088 v 0 c 0.059 0.087 0.106 0.189 0.131 0.314 v 0 c 0.201 1.014 1.643 0.243 1.358 -0.654 v 0 c -0.118 -0.37 -0.442 -0.546 -0.759 -0.546 v 0 c -0.396 0 -0.779 0.278 -0.723 0.798 m 261.928 -18.895 c 6.46 9.784 19.609 13.998 31.129 8.162 v 0 c -0.827 -2.6 -1.366 -5.203 -1.637 -7.912 v 0 c -9.665 3.17 -20.597 1.546 -26.807 -6.771 v 0 c -0.399 2.357 -1.382 4.456 -2.685 6.521 m -293.336 8.162 c 11.519 5.836 24.668 1.622 31.127 -8.162 v 0 c -1.302 -2.065 -2.284 -4.164 -2.684 -6.521 v 0 c -6.21 8.317 -17.142 9.941 -26.806 6.771 v 0 c -0.272 2.709 -0.811 5.312 -1.637 7.912 m 279.31 -19.718 c -1.011 0.596 -1.427 1.917 -1.022 3.003 v 0 c 0.925 2.486 4.592 1.446 4.284 -0.977 v 0 c -0.193 -0.121 -0.339 -0.318 -0.357 -0.614 v 0 c -0.063 -1.072 -0.91 -1.707 -1.836 -1.708 v 0 c -0.358 0 -0.728 0.095 -1.069 0.296 m -237.061 1.412 c -0.018 0.296 -0.165 0.493 -0.357 0.614 v 0 c -0.308 2.423 3.36 3.463 4.285 0.977 v 0 c 0.404 -1.086 -0.012 -2.407 -1.023 -3.003 v 0 c -0.341 -0.201 -0.711 -0.295 -1.069 -0.296 v 0 c -0.927 0 -1.773 0.636 -1.836 1.708 m 302.204 -19.626 c 0.201 0.016 0.385 0.094 0.522 0.223 v 0 c 1.122 0.769 2.026 -1.607 0.789 -1.927 v 0 c -0.054 -0.014 -0.11 -0.021 -0.165 -0.021 v 0 c -0.708 0 -1.427 1.101 -1.146 1.725 m -365.753 -1.704 c -1.236 0.32 -0.333 2.696 0.789 1.927 v 0 c 0.136 -0.129 0.32 -0.207 0.522 -0.223 v 0 c 0.281 -0.624 -0.438 -1.725 -1.146 -1.725 v 0 c -0.055 0 -0.11 0.007 -0.165 0.021 m 322.201 -19.896 c -1.235 1.996 -2.707 3.756 -4.312 5.391 v 0 c 1.105 1.764 2.029 3.661 2.736 5.688 v 0 c 5.958 -3.533 12.761 -3.695 18.731 -0.542 v 0 c -2.256 -4.387 -5.457 -8.074 -9.521 -10.962 v 0 c -2.545 0.142 -5.09 0.283 -7.634 0.425 m -275.762 11.079 c 0.708 -2.027 1.631 -3.924 2.736 -5.688 v 0 c -1.605 -1.634 -3.078 -3.395 -4.312 -5.391 v 0 c -2.544 -0.142 -5.089 -0.283 -7.634 -0.425 v 0 c -4.064 2.888 -7.264 6.575 -9.522 10.962 v 0 c 2.828 -1.494 5.843 -2.243 8.866 -2.243 v 0 c 3.36 0 6.73 0.925 9.866 2.785 m 293.694 -12.443 c 11.829 8.965 27.677 8.881 39.471 0 v 0 c -5.911 -4.451 -12.839 -6.692 -19.77 -6.692 v 0 c -6.899 0 -13.8 2.22 -19.701 6.692 m -352.673 0 c 11.794 8.881 27.642 8.965 39.472 0 v 0 c -5.901 -4.471 -12.803 -6.692 -19.701 -6.692 v 0 c -6.932 -0.001 -13.86 2.24 -19.771 6.692 m 329.52 5.388 c 1.203 -1.263 2.305 -2.619 3.286 -4.08 v 0 c -2.48 0.117 -4.932 -0.033 -7.375 -0.449 v 0 c 1.536 1.361 2.906 2.873 4.089 4.529 m -266.896 0 c 1.183 -1.656 2.553 -3.167 4.089 -4.529 v 0 c -2.443 0.416 -4.895 0.566 -7.375 0.449 v 0 c 0.981 1.461 2.082 2.817 3.286 4.08 m 262.758 -6.204 c 2.665 0.48 5.334 0.637 8.046 0.453 v 0 c 2.377 -3.016 4.177 -6.318 5.393 -9.821 v 0 c -1.931 -0.452 -3.835 -1.179 -5.656 -2.259 v 0 c -1.596 4.572 -4.246 8.506 -7.783 11.627 m -272.059 -9.368 c 1.216 3.503 3.017 6.805 5.393 9.821 v 0 c 2.711 0.184 5.381 0.027 8.046 -0.453 v 0 c -3.537 -3.121 -6.188 -7.055 -7.783 -11.627 v 0 c -1.821 1.08 -3.725 1.807 -5.656 2.259 M 439.36 319 c 2.199 -0.123 4.398 -0.245 6.596 -0.368 v 0 c 4.232 -2.923 7.547 -6.699 9.868 -11.212 v 0 c -3.641 1.924 -7.591 2.597 -11.471 2.041 v 0 c -1.157 3.376 -2.822 6.58 -4.993 9.539 m -285.317 -0.368 c 2.199 0.123 4.397 0.245 6.596 0.368 v 0 c -2.17 -2.959 -3.835 -6.163 -4.993 -9.539 v 0 c -3.88 0.556 -7.829 -0.117 -11.471 -2.041 v 0 c 2.322 4.513 5.636 8.289 9.868 11.212 m 304.454 -13.067 c -2.146 5.162 -5.374 9.46 -9.625 12.904 v 0 c 1.582 -0.089 3.163 -0.177 4.744 -0.265 v 0 c 5.077 -4.258 9.45 -11.064 11.256 -18.204 v 0 c -1.806 -7.14 -6.18 -13.946 -11.256 -18.204 v 0 c -1.581 -0.089 -3.162 -0.177 -4.744 -0.265 v 0 c 4.252 3.444 7.479 7.742 9.625 12.903 v 0 c 0.351 0.842 -0.735 1.296 -1.33 0.871 v 0 c -3.789 -2.706 -8.093 -3.755 -12.314 -3.206 v 0 c 0.742 2.55 1.205 5.191 1.353 7.901 v 0 c -0.148 2.71 -0.611 5.35 -1.353 7.902 v 0 c 4.221 0.548 8.525 -0.501 12.314 -3.207 v 0 c 0.155 -0.111 0.344 -0.162 0.532 -0.162 v 0 c 0.532 0 1.057 0.41 0.798 1.032 M 146.384 281.796 c -5.077 4.258 -9.45 11.064 -11.256 18.204 v 0 c 1.806 7.14 6.179 13.946 11.256 18.204 v 0 c 1.581 0.088 3.163 0.176 4.743 0.265 v 0 c -4.251 -3.444 -7.479 -7.742 -9.624 -12.904 v 0 c -0.351 -0.842 0.736 -1.295 1.331 -0.87 v 0 c 3.789 2.706 8.092 3.755 12.312 3.207 v 0 c -0.742 -2.552 -1.204 -5.192 -1.351 -7.902 v 0 c 0.147 -2.71 0.609 -5.351 1.351 -7.901 v 0 c -4.22 -0.549 -8.523 0.5 -12.312 3.206 v 0 c -0.595 0.425 -1.682 -0.029 -1.331 -0.871 v 0 c 2.145 -5.161 5.373 -9.459 9.624 -12.903 v 0 c -1.581 0.088 -3.162 0.176 -4.743 0.265 M 467.49 300 c 11.829 8.965 27.677 8.881 39.471 0 v 0 c -5.91 -4.451 -12.839 -6.692 -19.77 -6.692 v 0 c -6.899 0 -13.8 2.22 -19.701 6.692 m -374.451 0 c 11.794 8.881 27.642 8.965 39.472 0 v 0 c -5.901 -4.471 -12.803 -6.692 -19.701 -6.692 v 0 c -6.932 -0.001 -13.859 2.24 -19.771 6.692 M 429.31 281.496 c 3.537 3.12 6.187 7.054 7.783 11.626 v 0 c 1.821 -1.08 3.725 -1.806 5.656 -2.258 v 0 c -1.216 -3.504 -3.016 -6.806 -5.393 -9.822 v 0 c -0.736 -0.05 -1.47 -0.075 -2.201 -0.075 v 0 c -1.961 0 -3.904 0.179 -5.845 0.529 m -266.666 -0.454 c -2.376 3.016 -4.177 6.318 -5.393 9.822 v 0 c 1.931 0.452 3.835 1.178 5.656 2.258 v 0 c 1.595 -4.572 4.246 -8.506 7.783 -11.626 v 0 c -1.941 -0.35 -3.885 -0.529 -5.845 -0.529 v 0 c -0.731 0 -1.464 0.025 -2.201 0.075 m 293.18 11.537 c -2.321 -4.512 -5.636 -8.288 -9.868 -11.211 v 0 c -2.198 -0.123 -4.397 -0.245 -6.596 -0.368 v 0 c 2.171 2.959 3.836 6.163 4.993 9.539 v 0 c 0.876 -0.126 1.756 -0.189 2.635 -0.189 v 0 c 3.013 0 6.017 0.74 8.836 2.229 M 154.043 281.368 c -4.232 2.923 -7.546 6.699 -9.868 11.211 v 0 c 3.642 -1.923 7.591 -2.596 11.471 -2.04 v 0 c 1.158 -3.376 2.823 -6.58 4.993 -9.539 v 0 c -2.199 0.123 -4.397 0.245 -6.596 0.368 m 302.558 -0.69 c 11.829 8.965 27.677 8.882 39.471 0 v 0 c -5.911 -4.45 -12.839 -6.691 -19.77 -6.691 v 0 c -6.899 0 -13.8 2.22 -19.701 6.691 m -352.673 0 c 11.794 8.882 27.642 8.965 39.472 0 v 0 c -5.901 -4.471 -12.803 -6.691 -19.701 -6.691 v 0 c -6.932 -0.001 -13.86 2.24 -19.771 6.691 m 325.43 -0.859 c 2.444 -0.415 4.896 -0.565 7.376 -0.447 v 0 c -0.981 -1.463 -2.083 -2.817 -3.286 -4.081 v 0 c -1.183 1.656 -2.553 3.167 -4.09 4.528 m -258.717 0 c -1.536 -1.361 -2.906 -2.872 -4.089 -4.528 v 0 c -1.204 1.264 -2.305 2.618 -3.286 4.081 v 0 c 0.546 -0.026 1.091 -0.039 1.634 -0.039 v 0 c 1.925 0 3.836 0.162 5.741 0.486 m 263.716 -5.896 c 1.605 1.635 3.077 3.397 4.312 5.391 v 0 c 2.544 0.142 5.089 0.284 7.634 0.427 v 0 c 4.064 -2.888 7.265 -6.576 9.521 -10.963 v 0 c -5.97 3.153 -12.773 2.991 -18.731 -0.542 v 0 c -0.707 2.028 -1.631 3.924 -2.736 5.687 m -280.66 5.818 c 2.545 -0.143 5.09 -0.285 7.634 -0.427 v 0 c 1.234 -1.994 2.707 -3.756 4.312 -5.391 v 0 c -1.105 -1.763 -2.028 -3.659 -2.736 -5.687 v 0 c -5.958 3.533 -12.761 3.695 -18.732 0.542 v 0 c 2.258 4.387 5.458 8.075 9.522 10.963 m 329.046 -22.25 c -0.137 0.13 -0.321 0.207 -0.522 0.224 v 0 c -0.303 0.673 0.556 1.9 1.311 1.704 v 0 c 1.066 -0.277 0.542 -2.08 -0.342 -2.08 v 0 c -0.142 0 -0.292 0.046 -0.447 0.152 m -366.275 1.928 c 0.755 0.196 1.614 -1.031 1.311 -1.704 v 0 c -0.202 -0.017 -0.386 -0.094 -0.522 -0.224 v 0 c -0.155 -0.106 -0.306 -0.152 -0.447 -0.152 v 0 c -0.883 0 -1.408 1.803 -0.342 2.08 m 299.588 -22.922 c -0.405 1.088 0.011 2.408 1.022 3.004 v 0 c 1.224 0.722 2.817 0.075 2.905 -1.412 v 0 c 0.018 -0.296 0.164 -0.493 0.357 -0.613 v 0 c 0.185 -1.451 -1.055 -2.406 -2.279 -2.406 v 0 c -0.821 0 -1.634 0.429 -2.005 1.427 m -236.396 0.979 c 0.192 0.12 0.339 0.317 0.357 0.613 v 0 c 0.087 1.487 1.68 2.134 2.905 1.412 v 0 c 1.011 -0.596 1.427 -1.916 1.023 -3.004 v 0 c -0.372 -0.998 -1.185 -1.427 -2.006 -1.427 v 0 c -1.224 0 -2.463 0.955 -2.279 2.406 m 251.444 -9.532 c 1.303 2.066 2.286 4.165 2.685 6.522 v 0 c 6.21 -8.317 17.142 -9.94 26.807 -6.771 v 0 c 0.271 -2.709 0.81 -5.311 1.637 -7.911 v 0 c -3.595 -1.821 -7.349 -2.664 -11.008 -2.664 v 0 c -8.068 -0.001 -15.677 4.094 -20.121 10.824 m -264.893 6.522 c 0.4 -2.357 1.382 -4.456 2.684 -6.522 v 0 c -6.459 -9.782 -19.608 -13.997 -31.127 -8.16 v 0 c 0.826 2.6 1.365 5.202 1.637 7.911 v 0 c 3.009 -0.987 6.142 -1.509 9.217 -1.509 v 0 c 6.798 0 13.313 2.553 17.589 8.28 m 263.131 -25.164 c 0.266 0.834 1.583 0.683 1.482 -0.253 v 0 c -0.004 -0.031 0.008 -0.056 0.008 -0.087 v 0 c -0.06 -0.086 -0.106 -0.189 -0.132 -0.314 v 0 c -0.067 -0.341 -0.276 -0.48 -0.512 -0.48 v 0 c -0.464 0 -1.036 0.539 -0.846 1.134 M 169.3 208.648 c -0.025 0.125 -0.072 0.228 -0.131 0.314 v 0 c -0.001 0.031 0.01 0.056 0.007 0.087 v 0 c -0.101 0.936 1.217 1.087 1.482 0.253 v 0 c 0.189 -0.595 -0.382 -1.134 -0.846 -1.134 v 0 c -0.236 0 -0.445 0.139 -0.512 0.48 M 362.525 179.66 c -0.121 0.192 -0.318 0.339 -0.614 0.357 v 0 c -1.486 0.087 -2.133 1.68 -1.412 2.905 v 0 c 0.596 1.011 1.917 1.427 3.003 1.023 v 0 c 2.386 -0.888 1.524 -4.303 -0.693 -4.303 v 0 c -0.093 0 -0.187 0.005 -0.284 0.018 m -126.028 4.285 c 1.088 0.404 2.408 -0.012 3.004 -1.023 v 0 c 0.722 -1.225 0.075 -2.818 -1.412 -2.905 v 0 c -0.296 -0.018 -0.493 -0.165 -0.613 -0.357 v 0 c -0.097 -0.013 -0.192 -0.018 -0.285 -0.018 v 0 c -2.218 -0.001 -3.08 3.415 -0.694 4.303 m 154.201 -13.287 c 0.897 0.285 1.668 -1.157 0.654 -1.358 v 0 c -0.125 -0.025 -0.227 -0.072 -0.314 -0.131 v 0 c -0.014 -0.001 -0.027 0 -0.039 0.003 v 0 c -0.016 0.003 -0.032 0.005 -0.049 0.004 v 0 c -0.034 -0.004 -0.068 -0.006 -0.1 -0.006 v 0 c -0.845 0 -0.955 1.232 -0.152 1.488 m -181.736 -1.489 c -0.086 0.059 -0.189 0.106 -0.314 0.131 v 0 c -1.014 0.201 -0.243 1.643 0.654 1.358 v 0 c 0.834 -0.265 0.683 -1.583 -0.253 -1.482 v 0 c -0.018 0.001 -0.033 -0.001 -0.048 -0.004 v 0 c -0.011 -0.001 -0.022 -0.004 -0.034 -0.004 v 0 c -0.001 0 -0.003 0 -0.005 0.001 m 97.916 -6.262 c 4.572 1.595 8.506 4.246 11.627 7.783 v 0 c 0.48 -2.665 0.637 -5.335 0.453 -8.046 v 0 c -3.016 -2.376 -6.318 -4.177 -9.821 -5.393 v 0 c -0.452 1.931 -1.179 3.835 -2.259 5.656 m -25.836 -0.263 c -0.184 2.711 -0.027 5.381 0.454 8.046 v 0 c 3.12 -3.537 7.054 -6.188 11.626 -7.783 v 0 c -1.08 -1.821 -1.806 -3.725 -2.258 -5.656 v 0 c -3.504 1.216 -6.806 3.017 -9.822 5.393 m 39.138 7.997 c 1.362 -1.536 2.873 -2.906 4.529 -4.089 v 0 c -1.263 -1.204 -2.619 -2.305 -4.08 -3.286 v 0 c 0.117 2.48 -0.033 4.932 -0.449 7.375 m -44.889 -4.089 c 1.656 1.183 3.167 2.553 4.528 4.089 v 0 c -0.415 -2.443 -0.565 -4.895 -0.447 -7.375 v 0 c -1.463 0.981 -2.817 2.082 -4.081 3.286 m 97.013 -27.147 c 3.171 9.664 1.547 20.596 -6.77 26.806 v 0 c 2.357 0.4 4.456 1.382 6.521 2.684 v 0 c 9.784 -6.459 13.998 -19.608 8.162 -31.127 v 0 c -2.6 0.826 -5.203 1.365 -7.913 1.637 m -144.36 29.49 c 2.066 -1.302 4.165 -2.284 6.522 -2.684 v 0 c -8.317 -6.21 -9.94 -17.142 -6.771 -26.806 v 0 c -2.709 -0.272 -5.311 -0.811 -7.911 -1.637 v 0 c -5.837 11.519 -1.622 24.668 8.16 31.127 m 92.316 -15.198 c 0.142 2.545 0.283 5.09 0.425 7.634 v 0 c 1.996 1.234 3.757 2.707 5.391 4.312 v 0 c 1.764 -1.105 3.661 -2.028 5.688 -2.736 v 0 c -3.533 -5.958 -3.696 -12.761 -0.542 -18.732 v 0 c -4.387 2.258 -8.074 5.458 -10.962 9.522 m -52.024 9.21 c 2.028 0.708 3.924 1.631 5.687 2.736 v 0 c 1.635 -1.605 3.397 -3.078 5.391 -4.312 v 0 c 0.142 -2.544 0.284 -5.089 0.427 -7.634 v 0 c -2.888 -4.064 -6.576 -7.264 -10.963 -9.522 v 0 c 3.153 5.971 2.99 12.774 -0.542 18.732 m 41.225 -7.261 c 3.376 1.158 6.58 2.823 9.539 4.993 v 0 c -0.123 -2.199 -0.245 -4.397 -0.368 -6.596 v 0 c -2.923 -4.232 -6.699 -7.546 -11.212 -9.868 v 0 c 1.924 3.642 2.597 7.591 2.041 11.471 m -28.093 -1.603 c -0.123 2.199 -0.246 4.397 -0.368 6.596 v 0 c 2.959 -2.17 6.163 -3.835 9.539 -4.993 v 0 c -0.556 -3.88 0.117 -7.829 2.04 -11.471 v 0 c -4.512 2.322 -8.288 5.636 -11.211 9.868 m 26.534 1.104 c 0.548 -4.221 -0.501 -8.524 -3.207 -12.313 v 0 c -0.425 -0.595 0.028 -1.682 0.87 -1.331 v 0 c 5.162 2.145 9.46 5.373 12.904 9.624 v 0 c -0.089 -1.581 -0.177 -3.162 -0.265 -4.743 v 0 C 313.946 141.307 307.14 136.934 300 135.128 v 0 c -7.14 1.806 -13.946 6.179 -18.204 11.256 v 0 c -0.089 1.581 -0.177 3.162 -0.265 4.743 v 0 c 3.444 -4.251 7.742 -7.479 12.903 -9.624 v 0 c 0.842 -0.351 1.296 0.736 0.871 1.331 v 0 c -2.706 3.789 -3.754 8.092 -3.206 12.313 v 0 c 2.551 -0.743 5.191 -1.205 7.901 -1.352 v 0 c 2.71 0.147 5.35 0.609 7.902 1.352 M 319.321 143.4 c 8.965 -11.83 8.881 -27.678 0 -39.472 v 0 c -8.881 11.794 -8.964 27.642 0 39.472 m -38.643 0 c 8.965 -11.83 8.882 -27.678 0 -39.472 v 0 c -8.881 11.794 -8.964 27.642 0 39.472 M 300 132.511 c 8.965 -11.83 8.881 -27.678 0 -39.472 v 0 c -8.882 11.794 -8.964 27.642 0 39.472 m 40.581 -16.043 c -0.196 0.755 1.031 1.614 1.704 1.311 v 0 c 0.016 -0.202 0.094 -0.386 0.223 -0.522 v 0 c 0.507 -0.739 -0.352 -1.383 -1.088 -1.384 v 0 c -0.382 0 -0.73 0.173 -0.839 0.595 m -83.09 0.789 c 0.13 0.136 0.207 0.32 0.224 0.522 v 0 c 0.673 0.303 1.9 -0.556 1.704 -1.311 v 0 c -0.11 -0.422 -0.458 -0.595 -0.839 -0.595 v 0 c -0.737 0 -1.595 0.645 -1.089 1.384" stroke-linecap="round"/>
</g>
</g>
</g>
</svg>